PathFileType	4	(X/Y/Z)	/Users/itak/Documents/Research/Walk-IL/dataset/trc/00449_00167.trc
DataRate	CameraRate	NumFrames	NumMarkers	Units	OrigDataRate	OrigDataStartFrame	OrigNumFrames
100.000000	100.000000	4	54	mm	100.000000	238	477
Frame#	Time	RPSI			LPSI			L3			STRN			T10			C7			CLAV			RBAK			LBAK			LSHO			LUPA			LAEL			LAOL			LWPS			LFRA			LIFD			LHPS			LHTS			RSHO			RUPA			RAEL			RAOL			RWTS			RWPS			RFRA			RIFD			RHTS			RHPS			RBHD			LFHD			RFHD			LBHD			LHIP			RHIP			RASI			LASI			LKNE			LTHI			LANK			LTIP			LTOE			LMT1			LMT5			LHEE			RKNE			RTHI			RANK			RTIP			RTOE			RMT1			RMT5			RHEE			LWTS			*53			
		X1	Y1	Z1	X2	Y2	Z2	X3	Y3	Z3	X4	Y4	Z4	X5	Y5	Z5	X6	Y6	Z6	X7	Y7	Z7	X8	Y8	Z8	X9	Y9	Z9	X10	Y10	Z10	X11	Y11	Z11	X12	Y12	Z12	X13	Y13	Z13	X14	Y14	Z14	X15	Y15	Z15	X16	Y16	Z16	X17	Y17	Z17	X18	Y18	Z18	X19	Y19	Z19	X20	Y20	Z20	X21	Y21	Z21	X22	Y22	Z22	X23	Y23	Z23	X24	Y24	Z24	X25	Y25	Z25	X26	Y26	Z26	X27	Y27	Z27	X28	Y28	Z28	X29	Y29	Z29	X30	Y30	Z30	X31	Y31	Z31	X32	Y32	Z32	X33	Y33	Z33	X34	Y34	Z34	X35	Y35	Z35	X36	Y36	Z36	X37	Y37	Z37	X38	Y38	Z38	X39	Y39	Z39	X40	Y40	Z40	X41	Y41	Z41	X42	Y42	Z42	X43	Y43	Z43	X44	Y44	Z44	X45	Y45	Z45	X46	Y46	Z46	X47	Y47	Z47	X48	Y48	Z48	X49	Y49	Z49	X50	Y50	Z50	X51	Y51	Z51	X52	Y52	Z52	X53	Y53	Z53	X54	Y54	Z54	

239	2.38	-545.6466064453125	985.1202392578125	-4.387897491455078	-471.2039184570312	972.9439086914062	-123.4768218994141	-487.2647399902344	1086.642944335938	-28.05181884765625	-193.0141906738281	1207.046264648438	109.0540924072266	-468.9848327636719	1206.9716796875	-14.29561233520508	-359.39208984375	1438.266235351562	59.85914993286133	-202.1233978271484	1325.816040039062	102.1958312988281	-473.3784484863281	1336.470458984375	112.4110107421875	-349.915283203125	1405.00390625	-40.22581481933594	-219.8969573974609	1412.6494140625	-72.36138153076172	-228.7983856201172	1345.613525390625	-201.0579681396484	-324.6182250976562	1172.868896484375	-298.0508117675781	-414.5597839355469	1200.162109375	-256.98779296875	-388.6356506347656	963.708740234375	-332.3402099609375	-341.9836730957031	1085.5205078125	-318.4906311035156	-391.7396545410156	801.2970581054688	-290.6045227050781	-402.7702026367188	885.5900268554688	-343.5321655273438	-350.2317504882812	873.9590454101562	-293.3724365234375	-362.4666137695312	1391.796752929688	229.7728118896484	-417.1926574707031	1336.65380859375	286.6870727539062	-468.6807556152344	1061.336791992188	332.8831787109375	-515.353515625	1035.458740234375	288.6425476074219	-291.9511413574219	936.63330078125	269.9941711425781	-344.0939331054688	881.0465698242188	314.2717895507812	-441.7642517089844	1008.179382324219	332.9770202636719	-211.497802734375	802.8243408203125	243.6690368652344	-229.2176208496094	857.1737060546875	266.6750183105469	-285.0862731933594	815.0576171875	297.9727478027344	-340.7692260742188	1608.29052734375	150.0989685058594	-145.9904479980469	1632.281372070312	85.45301055908203	-214.0737609863281	1636.9140625	196.9299621582031	-261.6357116699219	1604.93896484375	-10.36156558990479	-296.6768188476562	858.9425659179688	-144.6569213867188	-544.9386596679688	864.6228637695312	166.9288635253906	-420.8974914550781	888.1531372070312	172.3426666259766	-273.2462463378906	891.5901489257812	-27.15036392211914	-159.0964050292969	462.1833801269531	-33.51177597045898	-175.4334869384766	621.8704833984375	-71.72965240478516	-275.9490051269531	34.35930252075195	-79.40238952636719	-180.9864654541016	301.4779968261719	-54.06871032714844	-121.551628112793	68.55123901367188	92.30506896972656	-198.4049987792969	66.3138427734375	81.83853149414062	-145.0261535644531	49.1977653503418	-15.22250747680664	-349.260986328125	40.19758605957031	-65.12123107910156	-561.759033203125	465.81396484375	130.7027587890625	-495.49609375	733.5631103515625	208.4666442871094	-912.7648315429688	299.5748291015625	-85.10157775878906	-676.6128540039062	388.6889953613281	78.38045501708984	-832.5164794921875	98.55561065673828	-73.36244201660156	-822.8331298828125	158.0611877441406	-115.9726638793945	-899.833251953125	174.8653259277344	-45.63944625854492	-900.3179321289062	359.9206848144531	-136.8326263427734	-346.4814147949219	959.8357543945312	-270.4978637695312	nan	nan	nan	
240	2.39	-527.6322631835938	978.2932739257812	6.725576400756836	-453.6432800292969	966.821044921875	-113.0072479248047	-468.8377075195312	1081.105102539062	-19.29085159301758	-175.1213073730469	1203.528442382812	119.1142654418945	-450.1919250488281	1201.957885742188	-7.499448299407959	-340.5929565429688	1434.74560546875	66.44287109375	-184.2130279541016	1322.361694335938	111.0758972167969	-455.1596069335938	1333.428344726562	117.7858734130859	-330.8619079589844	1399.937255859375	-34.26130676269531	-201.0824432373047	1407.174072265625	-65.82412719726562	-206.9817810058594	1335.071533203125	-193.0839538574219	-295.8221130371094	1157.215942382812	-286.6833190917969	-387.615478515625	1182.0869140625	-248.2628021240234	-350.0298156738281	945.1133422851562	-315.0206604003906	-309.2575378417969	1068.661499023438	-304.3940124511719	-345.5751342773438	784.2788696289062	-269.0577392578125	-360.0232849121094	866.2996826171875	-324.1893920898438	-307.8532409667969	858.6654663085938	-273.0162658691406	-345.53515625	1389.054809570312	236.8583679199219	-401.4889526367188	1334.646850585938	293.1736755371094	-459.2238159179688	1059.695678710938	339.6156005859375	-506.404541015625	1036.161987304688	294.7135009765625	-289.6998291015625	923.0106811523438	280.5145874023438	-346.1899108886719	872.0261840820312	324.9454650878906	-435.7948303222656	1004.88427734375	340.6985778808594	-219.0735015869141	782.6631469726562	258.960205078125	-232.784912109375	838.9503173828125	279.7077331542969	-292.0244750976562	801.8685913085938	311.189453125	-322.8588256835938	1604.963256835938	156.8088073730469	-127.9694747924805	1629.652465820312	92.86946105957031	-196.5274810791016	1634.259887695312	204.0675506591797	-243.0816040039062	1601.578857421875	-3.310989379882812	-278.6319885253906	853.1299438476562	-135.2761535644531	-522.6939697265625	859.0067749023438	179.5204467773438	-399.4499816894531	884.6168212890625	182.2600250244141	-252.9333038330078	887.7564697265625	-18.28384590148926	-146.3521423339844	454.6759338378906	-24.70457649230957	-159.4979705810547	614.0441284179688	-62.92055892944336	-272.7829895019531	32.21090316772461	-75.15914154052734	-171.8776245117188	295.0314636230469	-46.72542190551758	-118.0882415771484	61.86569976806641	97.86207580566406	-195.0083923339844	61.56959533691406	86.71061706542969	-141.2110137939453	45.70415115356445	-11.01565742492676	-345.7801208496094	38.07221221923828	-60.47902679443359	-528.907470703125	460.4984741210938	150.9284515380859	-473.2797546386719	727.9807739257812	221.0899047851562	-884.5501098632812	319.317626953125	-71.17530059814453	-645.8721313476562	390.6211853027344	95.963623046875	-814.82568359375	113.0790939331055	-59.88035583496094	-801.8289794921875	173.003173828125	-102.1356735229492	-878.0905151367188	193.5811767578125	-32.0678596496582	-869.438232421875	378.9582214355469	-122.9437561035156	-308.8799438476562	944.9821166992188	-252.6036987304688	nan	nan	nan	
241	2.4	-509.8936157226562	969.9879150390625	17.56957244873047	-436.2970275878906	959.7858276367188	-102.8555755615234	-450.5338134765625	1074.1142578125	-10.56803131103516	-157.3846282958984	1198.841430664062	129.1881866455078	-431.4723815917969	1195.639526367188	-0.6690712571144104	-321.9283447265625	1430.295288085938	72.97789764404297	-166.3516540527344	1317.744873046875	120.0616073608398	-437.108154296875	1329.362182617188	122.949951171875	-311.9776000976562	1393.909912109375	-28.37843704223633	-182.3765106201172	1400.669311523438	-59.28206634521484	-185.1772003173828	1323.377807617188	-184.7322692871094	-266.0657348632812	1140.531860351562	-274.7945251464844	-359.7062072753906	1162.49658203125	-239.184326171875	-309.7714233398438	926.0166625976562	-296.7776489257812	-275.2837219238281	1051.009765625	-289.5803527832031	-297.5643310546875	767.2896728515625	-246.2981109619141	-315.44775390625	846.716552734375	-303.7005920410156	-263.9628295898438	843.2808837890625	-251.5628662109375	-328.8585510253906	1385.41845703125	243.8788604736328	-386.1617431640625	1331.754516601562	299.532470703125	-450.6457824707031	1057.54736328125	346.0078430175781	-498.0157470703125	1036.389038085938	300.2451477050781	-289.3202209472656	909.0713500976562	291.3019409179688	-349.9971313476562	863.1908569335938	335.7122497558594	-430.9559020996094	1001.318725585938	348.171142578125	-229.2060546875	763.0193481445312	274.9045715332031	-238.7142639160156	820.8941650390625	293.3316040039062	-301.0545654296875	789.2161254882812	324.7982788085938	-305.153564453125	1600.759155273438	163.6089019775391	-110.1702651977539	1626.306396484375	100.3709030151367	-179.2033538818359	1630.8916015625	211.2789916992188	-224.7295989990234	1597.334838867188	3.845124959945679	-260.4181823730469	846.6618041992188	-126.1356353759766	-500.5584411621094	852.2112426757812	191.9818878173828	-378.1697998046875	879.898681640625	192.1038665771484	-232.7931823730469	882.9695434570312	-9.680478096008301	-134.06494140625	446.5154418945312	-15.95104312896729	-143.9159240722656	605.5889282226562	-53.9717903137207	-271.8258056640625	30.76263236999512	-72.7635498046875	-163.9359283447266	288.1259460449219	-39.85349273681641	-116.9695358276367	55.44855117797852	102.138053894043	-193.9808959960938	57.2093391418457	89.98968505859375	-139.5455169677734	42.99787139892578	-8.432660102844238	-344.550048828125	36.32474517822266	-57.69551849365234	-495.5307006835938	455.0385437011719	171.805419921875	-451.1725463867188	721.2188110351562	233.5829772949219	-854.138916015625	337.6025085449219	-55.66176223754883	-613.9436645507812	392.2949829101562	114.4422836303711	-793.96533203125	127.2502059936523	-45.71565246582031	-777.9815673828125	187.3324737548828	-87.44284820556641	-853.4192504882812	210.9235382080078	-17.39274597167969	-836.7715454101562	396.7557067871094	-107.3398208618164	-269.9107666015625	929.7822265625	-233.8344573974609	nan	nan	nan	
242	2.41	-492.378662109375	960.5574951171875	28.10283088684082	-419.0914306640625	952.24951171875	-93.04197692871094	-432.3172607421875	1065.987915039062	-1.873329997062683	-139.7732086181641	1193.1923828125	139.2908630371094	-412.8302307128906	1188.238403320312	6.317837715148926	-303.4017639160156	1425.081420898438	79.50028991699219	-148.5072479248047	1312.164916992188	129.1884460449219	-419.2023315429688	1324.404663085938	127.9597702026367	-293.2750244140625	1387.13037109375	-22.53232955932617	-163.7682647705078	1393.319091796875	-52.69083023071289	-163.4522857666016	1310.748291015625	-175.9254302978516	-235.3539428710938	1123.14599609375	-262.2610778808594	-330.7784423828125	1141.69873046875	-229.6348266601562	-267.9337463378906	906.895751953125	-277.529541015625	-240.1016540527344	1032.959594726562	-273.93408203125	-248.0406036376953	750.8426513671875	-222.2412567138672	-269.1728210449219	827.360595703125	-281.9974670410156	-218.8034362792969	828.2506103515625	-228.9091339111328	-312.4436950683594	1381.08935546875	250.8700866699219	-371.2081298828125	1328.160888671875	305.7822570800781	-442.8919982910156	1055.065307617188	352.01708984375	-490.0718688964844	1036.28759765625	305.1669921875	-290.6860046386719	895.2424926757812	302.2905578613281	-355.3503723144531	854.902099609375	346.3855285644531	-427.1486206054688	997.694091796875	355.3012084960938	-241.7301940917969	744.4531860351562	291.2097778320312	-246.8637542724609	803.5113525390625	307.3719177246094	-311.9882507324219	777.5338745117188	338.5223083496094	-287.632568359375	1595.902465820312	170.5350189208984	-92.57071685791016	1622.422119140625	107.9920425415039	-162.0733947753906	1626.98583984375	218.6035766601562	-206.5750579833984	1592.43115234375	11.13508319854736	-242.0479736328125	839.8043212890625	-117.1923294067383	-478.6449890136719	844.5105590820312	204.2356109619141	-357.1758117675781	874.2255249023438	201.921875	-212.8642425537109	877.4431762695312	-1.259008049964905	-122.2985610961914	437.9061279296875	-7.350506782531738	-128.8479919433594	596.6694946289062	-45.04644012451172	-272.2548217773438	29.88931274414062	-71.71407318115234	-156.9250640869141	280.9627685546875	-33.41096878051758	-117.3123626708984	49.82781982421875	105.3512954711914	-194.429443359375	53.56039810180664	92.02196502685547	-139.2779388427734	41.15727233886719	-7.074837207794189	-344.7928466796875	34.84770584106445	-56.28023529052734	-461.6858215332031	449.7651672363281	193.2505340576172	-429.2873229980469	713.5517578125	245.8683166503906	-821.736572265625	353.8918762207031	-38.61713027954102	-580.90966796875	393.7375793457031	133.782958984375	-769.6444702148438	140.3711700439453	-30.78785514831543	-751.162841796875	200.5517883300781	-71.85417175292969	-825.7469482421875	226.3069152832031	-1.576334834098816	-802.6198120117188	412.8023376464844	-90.10551452636719	-229.7357788085938	914.6410522460938	-214.0905456542969	nan	nan	nan	
